<?xml version="1.0" encoding="utf-8"?>
<svg viewBox="0 0 1500 518" width="1500" height="518" xmlns="http://www.w3.org/2000/svg">
  <defs>
    <linearGradient x1="19.0499615%" y1="35.8940788%" x2="75.4520634%" y2="61.5933293%" id="linearGradient-1" gradientTransform="matrix(1.359726, 0.895225, 0.109651, 1.156719, -0.224686, -0.498821)">
      <stop offset="0" style="stop-color: rgb(64, 184, 176);"/>
      <stop offset="1" style="stop-color: rgb(17, 35, 79);"/>
    </linearGradient>
  </defs>
  <g id="Artboard" stroke="none" stroke-width="1" fill="none" fill-rule="evenodd" transform="matrix(1, 0, 0, 1, -20.326, -518.863037)">
    <rect id="Background" width="1500" height="518" y="518.863" x="20.326" fill="url(#linearGradient-1)" style="fill-rule: evenodd;"/>
    <g id="Lock" transform="matrix(1, 0, 0, 1, 144.188141, 631.863037)" stroke="#FFFFFF" stroke-linecap="round" stroke-linejoin="round" stroke-width="2">
      <polyline id="Path-2" points="240 225.061042 213.188191 247 148 214 156.946156 247"/>
      <polygon id="Path-3" points="131 261 158.337651 247 193.447715 258.801488"/>
      <line x1="240" y1="225" x2="148" y2="214" id="Path-5"/>
      <line x1="149" y1="214" x2="72" y2="191" id="Path-6"/>
      <line x1="148" y1="214" x2="104" y2="242" id="Path-7"/>
      <polyline id="Path-9" points="255.360287 185 231.097303 166.665794 258.643256 108 193.863118 67 206.028673 123.177281 167 145.419916"/>
      <line x1="169" y1="145" x2="231.097303" y2="166.665794" id="Path-10"/>
      <polyline id="Path-12" points="255.360287 185 265 152.201913 265 73 258.644112 108.137716"/>
      <line x1="194" y1="67" x2="167" y2="145.272691" id="Path-14"/>
      <line x1="168" y1="146" x2="109" y2="116" id="Path-15"/>
      <line x1="194" y1="67" x2="146.543246" y2="90.7712341" id="Path-16"/>
      <line x1="155.848478" y1="31" x2="146" y2="90.7712341" id="Path-17"/>
      <line x1="194" y1="67" x2="265" y2="73" id="Path-20"/>
      <line x1="206" y1="123" x2="258" y2="108" id="Path-21"/>
      <line x1="72" y1="191.530123" x2="146.150711" y2="184" id="Path-22"/>
      <polygon id="Path-27" points="131 0 63 39.7875872 91.9086828 80.1128503 108.981795 116 101 43"/>
      <path d="M109,116 L67,126 L109,116 Z" id="Path-38"/>
      <line x1="0.774242233" y1="74.2676739" x2="47" y2="74" id="Path-45"/>
      <line x1="47" y1="74" x2="108.888655" y2="116.258872" id="Path-46"/>
      <polyline id="Path-47" points="71 190.574237 1 221.750931 1.66216871 146.669315 32 130"/>
      <line x1="32" y1="130.399921" x2="70" y2="191" id="Path-48"/>
      <line x1="1.66666667" y1="147.435076" x2="0.333333333" y2="74.3486557" id="Path-49"/>
      <polyline id="Path-51" points="71.2115472 191 62.5097669 235 132 292 70.7321122 258.602235 45.4573772 245.629223 1 221.750931"/>
      <line x1="62" y1="235" x2="2.27257034" y2="221.509853" id="Path-52"/>
      <line x1="1.27703871" y1="220.937199" x2="31.8673287" y2="131" id="Path-53"/>
      <line x1="31.8811423" y1="130.399921" x2="46.514543" y2="74.2421812" id="Path-54"/>
      <line x1="131" y1="0" x2="155.848478" y2="31" id="Path-57"/>
      <line x1="66" y1="126" x2="47" y2="74" id="Path"/>
      <line x1="66" y1="126" x2="32" y2="130" id="Path-8"/>
      <line x1="146" y1="91" x2="110" y2="116" id="Path-11"/>
      <line x1="146" y1="92" x2="167" y2="146" id="Path-13"/>
      <polygon id="Path-19" points="131 5.68434189e-14 199.338883 37.9551357 265 73"/>
      <polygon id="Path-23" points="155.848478 31 205 41.1962797 193.863118 67"/>
      <polyline id="Path-24" points="101 43 129.758726 51.9872881 146 91"/>
      <line x1="130" y1="52" x2="155" y2="31" id="Path-25"/>
      <line x1="132" y1="292" x2="157.879102" y2="278" id="Path-68"/>
      <line x1="157.879102" y1="278" x2="193.447715" y2="258.801488" id="Path-69"/>
      <line x1="0.5" y1="74.5" x2="63" y2="39.7875872" id="Path-70"/>
      <line x1="47" y1="74" x2="63" y2="39.7875872" id="Path-71"/>
      <polyline id="Path-73" points="146 184 104 147.153488 107.876072 116"/>
      <line x1="104" y1="242" x2="62" y2="235" id="Path-74"/>
      <polygon id="Path-75" points="104 242 130.636852 260.636418 132 292"/>
      <polyline id="Path-76" points="146.383459 184 167.385366 146 203 197 255.360287 185 265 219.367065 239.176701 225"/>
      <polyline id="Path-77" points="203 197.410856 149.405914 214 146.150711 184"/>
      <line x1="203" y1="197" x2="146.150711" y2="184" id="Path-78"/>
      <line x1="203" y1="197" x2="240" y2="225" id="Path-79"/>
      <polyline id="Path-80" points="70.246098 191 104 146.955275 66 126"/>
      <line x1="193" y1="259" x2="213" y2="247" id="Path-81"/>
      <polyline id="Path-72" points="265 152 265 219.276659 213 247"/>
      <line x1="63" y1="39.7875872" x2="101" y2="43" id="Path-4"/>
    </g>
  </g>
  <g transform="matrix(1, 0, 0, 1, 366.158051, 14.033005)">
    <path d="M 124.847 306.371 L 156.767 183.731 L 177.095 183.731 L 208.847 306.371 L 193.559 306.371 L 185.495 273.779 L 148.367 273.779 L 140.303 306.371 L 124.847 306.371 Z M 151.391 261.011 L 182.303 261.011 L 172.895 223.211 C 171.103 216.043 169.703 210.051 168.695 205.235 C 167.687 200.419 167.071 197.283 166.847 195.827 C 166.623 197.283 166.007 200.419 164.999 205.235 C 163.991 210.051 162.591 215.987 160.799 223.043 L 151.391 261.011 Z M 245.357 306.371 L 245.357 183.731 L 265.517 183.731 L 302.981 288.731 C 302.757 285.931 302.505 282.487 302.225 278.399 C 301.945 274.311 301.721 269.999 301.553 265.463 C 301.385 260.927 301.301 256.643 301.301 252.611 L 301.301 183.731 L 315.917 183.731 L 315.917 306.371 L 295.757 306.371 L 258.461 201.371 C 258.685 204.059 258.909 207.447 259.133 211.535 C 259.357 215.623 259.553 219.935 259.721 224.471 C 259.889 229.007 259.973 233.347 259.973 237.491 L 259.973 306.371 L 245.357 306.371 Z M 386.868 306.371 L 386.868 197.339 L 353.268 197.339 L 353.268 183.563 L 435.588 183.563 L 435.588 197.339 L 401.988 197.339 L 401.988 306.371 L 386.868 306.371 Z M 466.235 306.371 L 498.155 183.731 L 518.483 183.731 L 550.235 306.371 L 534.947 306.371 L 526.883 273.779 L 489.755 273.779 L 481.691 306.371 L 466.235 306.371 Z M 492.779 261.011 L 523.691 261.011 L 514.283 223.211 C 512.491 216.043 511.091 210.051 510.083 205.235 C 509.075 200.419 508.459 197.283 508.235 195.827 C 508.011 197.283 507.395 200.419 506.387 205.235 C 505.379 210.051 503.979 215.987 502.187 223.043 L 492.779 261.011 Z M 587.081 306.371 L 587.081 183.731 L 625.049 183.731 C 632.329 183.731 638.713 185.215 644.201 188.183 C 649.689 191.151 653.945 195.267 656.969 200.531 C 659.993 205.795 661.505 211.955 661.505 219.011 C 661.505 227.299 659.349 234.411 655.037 240.347 C 650.725 246.283 644.873 250.371 637.481 252.611 L 663.185 306.371 L 645.377 306.371 L 621.857 254.291 L 602.201 254.291 L 602.201 306.371 L 587.081 306.371 Z M 602.201 240.683 L 625.049 240.683 C 631.321 240.683 636.361 238.695 640.169 234.719 C 643.977 230.743 645.881 225.507 645.881 219.011 C 645.881 212.403 643.977 207.139 640.169 203.219 C 636.361 199.299 631.321 197.339 625.049 197.339 L 602.201 197.339 L 602.201 240.683 Z M 702.232 306.371 L 702.232 183.731 L 772.792 183.731 L 772.792 197.507 L 717.184 197.507 L 717.184 235.475 L 766.912 235.475 L 766.912 249.083 L 717.184 249.083 L 717.184 292.595 L 772.792 292.595 L 772.792 306.371 L 702.232 306.371 Z M 850.295 308.051 C 842.231 308.051 835.315 306.707 829.547 304.019 C 823.779 301.331 819.327 297.467 816.191 292.427 C 813.055 287.387 811.431 281.395 811.319 274.451 L 826.439 274.451 C 826.439 280.611 828.539 285.483 832.739 289.067 C 836.939 292.651 842.791 294.443 850.295 294.443 C 857.351 294.443 862.867 292.707 866.843 289.235 C 870.819 285.763 872.807 280.947 872.807 274.787 C 872.807 269.859 871.491 265.547 868.859 261.851 C 866.227 258.155 862.447 255.579 857.519 254.123 L 840.887 248.915 C 832.487 246.339 826.019 242.027 821.483 235.979 C 816.947 229.931 814.679 222.819 814.679 214.643 C 814.679 208.035 816.163 202.295 819.131 197.423 C 822.099 192.551 826.271 188.743 831.647 185.999 C 837.023 183.255 843.351 181.883 850.631 181.883 C 861.383 181.883 870.007 184.879 876.503 190.871 C 882.999 196.863 886.303 204.843 886.415 214.811 L 871.295 214.811 C 871.295 208.763 869.475 204.031 865.835 200.615 C 862.195 197.199 857.071 195.491 850.463 195.491 C 843.967 195.491 838.899 197.059 835.259 200.195 C 831.619 203.331 829.799 207.699 829.799 213.299 C 829.799 218.339 831.143 222.707 833.831 226.403 C 836.519 230.099 840.383 232.731 845.423 234.299 L 862.223 239.675 C 870.399 242.251 876.727 246.619 881.207 252.779 C 885.687 258.939 887.927 266.163 887.927 274.451 C 887.927 281.171 886.359 287.051 883.223 292.091 C 880.087 297.131 875.691 301.051 870.035 303.851 C 864.379 306.651 857.799 308.051 850.295 308.051 Z" style="fill: rgb(255, 255, 255); white-space: pre;"/>
  </g>
</svg>